<?xml version="1.0" encoding="UTF-8" standalone="no"?>
<!DOCTYPE svg PUBLIC "-//W3C//DTD SVG 1.1//EN"
 "http://www.w3.org/Graphics/SVG/1.1/DTD/svg11.dtd">
<!-- Generated by graphviz version 15.1.0 (20260618.0150)
 -->
<!-- Title: G Pages: 1 -->
<svg width="578pt" height="409pt"
 viewBox="0.00 0.00 578.00 409.00" xmlns="http://www.w3.org/2000/svg" xmlns:xlink="http://www.w3.org/1999/xlink">
<g id="graph0" class="graph" transform="scale(1 1) rotate(0) translate(25.2 383.54)">
<title>G</title>
<polygon fill="#f7f4ed" stroke="none" points="-25.2,25.2 -25.2,-383.54 552.62,-383.54 552.62,25.2 -25.2,25.2"/>
<text xml:space="preserve" text-anchor="middle" x="263.71" y="-333.44" font-family="Hiragino Sans" font-size="22.00">Benchmark 03: window計算の前にownerで絞る</text>
<!-- all -->
<g id="node1" class="node">
<title>all</title>
<path fill="#ffffff" stroke="#19324d" stroke-width="1.5" d="M208.92,-327.84C208.92,-327.84 12,-327.84 12,-327.84 6,-327.84 0,-321.84 0,-315.84 0,-315.84 0,-292.56 0,-292.56 0,-286.56 6,-280.56 12,-280.56 12,-280.56 208.92,-280.56 208.92,-280.56 214.92,-280.56 220.92,-286.56 220.92,-292.56 220.92,-292.56 220.92,-315.84 220.92,-315.84 220.92,-321.84 214.92,-327.84 208.92,-327.84"/>
<text xml:space="preserve" text-anchor="middle" x="110.46" y="-305.9" font-family="Hiragino Sans" font-size="14.00" fill="#19324d">変更前</text>
<text xml:space="preserve" text-anchor="middle" x="110.46" y="-290.9" font-family="Hiragino Sans" font-size="14.00" fill="#19324d">全ownerの位置履歴 22,078行</text>
</g>
<!-- allwin -->
<g id="node2" class="node">
<title>allwin</title>
<path fill="#fce2cf" stroke="#19324d" stroke-width="1.5" d="M191.92,-235.56C191.92,-235.56 61,-235.56 61,-235.56 55,-235.56 49,-229.56 49,-223.56 49,-223.56 49,-185.28 49,-185.28 49,-179.28 55,-173.28 61,-173.28 61,-173.28 191.92,-173.28 191.92,-173.28 197.92,-173.28 203.92,-179.28 203.92,-185.28 203.92,-185.28 203.92,-223.56 203.92,-223.56 203.92,-229.56 197.92,-235.56 191.92,-235.56"/>
<text xml:space="preserve" text-anchor="middle" x="126.46" y="-213.62" font-family="Hiragino Sans" font-size="14.00" fill="#19324d">全行をsort</text>
<text xml:space="preserve" text-anchor="middle" x="126.46" y="-198.62" font-family="Hiragino Sans" font-size="14.00" fill="#19324d">LAGで前位置を参照</text>
<text xml:space="preserve" text-anchor="middle" x="126.46" y="-183.62" font-family="Hiragino Sans" font-size="14.00" fill="#19324d">距離を集計</text>
</g>
<!-- all&#45;&gt;allwin -->
<g id="edge1" class="edge">
<title>all&#45;&gt;allwin</title>
<path fill="none" stroke="#546578" stroke-width="1.5" d="M114.25,-280.03C115.91,-269.89 117.91,-257.7 119.8,-246.13"/>
<polygon fill="#546578" stroke="#546578" stroke-width="1.5" points="122.53,-246.79 121.06,-238.44 117,-245.88 122.53,-246.79"/>
</g>
<!-- late -->
<g id="node3" class="node">
<title>late</title>
<path fill="#ffffff" stroke="#19324d" stroke-width="1.5" d="M215.3,-128.28C215.3,-128.28 53.63,-128.28 53.63,-128.28 47.63,-128.28 41.63,-122.28 41.63,-116.28 41.63,-116.28 41.63,-104.28 41.63,-104.28 41.63,-98.28 47.63,-92.28 53.63,-92.28 53.63,-92.28 215.3,-92.28 215.3,-92.28 221.3,-92.28 227.3,-98.28 227.3,-104.28 227.3,-104.28 227.3,-116.28 227.3,-116.28 227.3,-122.28 221.3,-128.28 215.3,-128.28"/>
<text xml:space="preserve" text-anchor="middle" x="134.46" y="-104.48" font-family="Hiragino Sans" font-size="14.00" fill="#19324d">最後に対象ownerをfilter</text>
</g>
<!-- allwin&#45;&gt;late -->
<g id="edge2" class="edge">
<title>allwin&#45;&gt;late</title>
<path fill="none" stroke="#546578" stroke-width="1.5" d="M129.12,-172.74C130.07,-161.82 131.13,-149.61 132.06,-138.96"/>
<polygon fill="#546578" stroke="#546578" stroke-width="1.5" points="134.83,-139.41 132.73,-131.2 129.25,-138.93 134.83,-139.41"/>
</g>
<!-- effect -->
<g id="node7" class="node">
<title>effect</title>
<path fill="#ffffff" stroke="#19324d" stroke-width="1.5" d="M357.92,-47.28C357.92,-47.28 155,-47.28 155,-47.28 149,-47.28 143,-41.28 143,-35.28 143,-35.28 143,-12 143,-12 143,-6 149,0 155,0 155,0 357.92,0 357.92,0 363.92,0 369.92,-6 369.92,-12 369.92,-12 369.92,-35.28 369.92,-35.28 369.92,-41.28 363.92,-47.28 357.92,-47.28"/>
<text xml:space="preserve" text-anchor="middle" x="256.46" y="-25.34" font-family="Hiragino Sans" font-size="14.00" fill="#19324d">一時表とDB占有時間が減る</text>
<text xml:space="preserve" text-anchor="middle" x="256.46" y="-10.34" font-family="Hiragino Sans" font-size="14.00" fill="#19324d">他APIのconnection待ちも減る</text>
</g>
<!-- late&#45;&gt;effect -->
<g id="edge3" class="edge">
<title>late&#45;&gt;effect</title>
<path fill="none" stroke="#546578" stroke-width="1.5" d="M160.04,-91.54C175.91,-80.52 196.68,-66.11 214.88,-53.49"/>
<polygon fill="#546578" stroke="#546578" stroke-width="1.5" points="216.19,-55.98 221.17,-49.12 213,-51.38 216.19,-55.98"/>
</g>
<!-- owner -->
<g id="node4" class="node">
<title>owner</title>
<path fill="#d8efea" stroke="#19324d" stroke-width="1.5" d="M515.42,-327.84C515.42,-327.84 261.5,-327.84 261.5,-327.84 255.5,-327.84 249.5,-321.84 249.5,-315.84 249.5,-315.84 249.5,-292.56 249.5,-292.56 249.5,-286.56 255.5,-280.56 261.5,-280.56 261.5,-280.56 515.42,-280.56 515.42,-280.56 521.42,-280.56 527.42,-286.56 527.42,-292.56 527.42,-292.56 527.42,-315.84 527.42,-315.84 527.42,-321.84 521.42,-327.84 515.42,-327.84"/>
<text xml:space="preserve" text-anchor="middle" x="388.46" y="-305.9" font-family="Hiragino Sans" font-size="14.00" fill="#19324d">変更後</text>
<text xml:space="preserve" text-anchor="middle" x="388.46" y="-290.9" font-family="Hiragino Sans" font-size="14.00" fill="#19324d">owner_id INDEXで対象椅子を先に取得</text>
</g>
<!-- positions -->
<g id="node5" class="node">
<title>positions</title>
<path fill="#ffffff" stroke="#19324d" stroke-width="1.5" d="M479.05,-222.42C479.05,-222.42 291.88,-222.42 291.88,-222.42 285.88,-222.42 279.88,-216.42 279.88,-210.42 279.88,-210.42 279.88,-198.42 279.88,-198.42 279.88,-192.42 285.88,-186.42 291.88,-186.42 291.88,-186.42 479.05,-186.42 479.05,-186.42 485.05,-186.42 491.05,-192.42 491.05,-198.42 491.05,-198.42 491.05,-210.42 491.05,-210.42 491.05,-216.42 485.05,-222.42 479.05,-222.42"/>
<text xml:space="preserve" text-anchor="middle" x="385.46" y="-198.62" font-family="Hiragino Sans" font-size="14.00" fill="#19324d">対象椅子の位置履歴だけ取得</text>
</g>
<!-- owner&#45;&gt;positions -->
<g id="edge4" class="edge">
<title>owner&#45;&gt;positions</title>
<path fill="none" stroke="#546578" stroke-width="1.5" d="M387.75,-280.03C387.32,-265.94 386.76,-247.87 386.31,-233.04"/>
<polygon fill="#546578" stroke="#546578" stroke-width="1.5" points="389.11,-233.1 386.07,-225.19 383.51,-233.27 389.11,-233.1"/>
</g>
<!-- smallwin -->
<g id="node6" class="node">
<title>smallwin</title>
<path fill="#d8efea" stroke="#19324d" stroke-width="1.5" d="M495.05,-128.28C495.05,-128.28 271.88,-128.28 271.88,-128.28 265.88,-128.28 259.88,-122.28 259.88,-116.28 259.88,-116.28 259.88,-104.28 259.88,-104.28 259.88,-98.28 265.88,-92.28 271.88,-92.28 271.88,-92.28 495.05,-92.28 495.05,-92.28 501.05,-92.28 507.05,-98.28 507.05,-104.28 507.05,-104.28 507.05,-116.28 507.05,-116.28 507.05,-122.28 501.05,-128.28 495.05,-128.28"/>
<text xml:space="preserve" text-anchor="middle" x="383.46" y="-104.48" font-family="Hiragino Sans" font-size="14.00" fill="#19324d">小さい集合だけsort・window計算</text>
</g>
<!-- positions&#45;&gt;smallwin -->
<g id="edge5" class="edge">
<title>positions&#45;&gt;smallwin</title>
<path fill="none" stroke="#546578" stroke-width="1.5" d="M385.08,-186.09C384.8,-172.79 384.39,-154.17 384.06,-138.83"/>
<polygon fill="#546578" stroke="#546578" stroke-width="1.5" points="386.86,-139.05 383.89,-131.12 381.26,-139.18 386.86,-139.05"/>
</g>
<!-- smallwin&#45;&gt;effect -->
<g id="edge6" class="edge">
<title>smallwin&#45;&gt;effect</title>
<path fill="none" stroke="#546578" stroke-width="1.5" d="M356.84,-91.54C340.31,-80.52 318.69,-66.11 299.74,-53.49"/>
<polygon fill="#546578" stroke="#546578" stroke-width="1.5" points="301.35,-51.19 293.14,-49.09 298.25,-55.85 301.35,-51.19"/>
</g>
</g>
</svg>
