<?xml version="1.0" encoding="UTF-8" standalone="no"?>
<!DOCTYPE svg PUBLIC "-//W3C//DTD SVG 1.1//EN"
 "http://www.w3.org/Graphics/SVG/1.1/DTD/svg11.dtd">
<!-- Generated by graphviz version 15.1.0 (20260618.0150)
 -->
<!-- Title: G Pages: 1 -->
<svg width="669pt" height="512pt"
 viewBox="0.00 0.00 669.00 512.00" xmlns="http://www.w3.org/2000/svg" xmlns:xlink="http://www.w3.org/1999/xlink">
<g id="graph0" class="graph" transform="scale(1 1) rotate(0) translate(25.2 487.1)">
<title>G</title>
<polygon fill="#f7f4ed" stroke="none" points="-25.2,25.2 -25.2,-487.1 643.45,-487.1 643.45,25.2 -25.2,25.2"/>
<text xml:space="preserve" text-anchor="middle" x="309.12" y="-437" font-family="Hiragino Sans" font-size="22.00">Benchmark 10: polling間隔はDB負荷と状態発見の交換条件</text>
<!-- short -->
<g id="node1" class="node">
<title>short</title>
<path fill="#ffffff" stroke="#19324d" stroke-width="1.5" d="M316.15,-431.4C316.15,-431.4 82.48,-431.4 82.48,-431.4 76.48,-431.4 70.48,-425.4 70.48,-419.4 70.48,-419.4 70.48,-381.12 70.48,-381.12 70.48,-375.12 76.48,-369.12 82.48,-369.12 82.48,-369.12 316.15,-369.12 316.15,-369.12 322.15,-369.12 328.15,-375.12 328.15,-381.12 328.15,-381.12 328.15,-419.4 328.15,-419.4 328.15,-425.4 322.15,-431.4 316.15,-431.4"/>
<text xml:space="preserve" text-anchor="middle" x="199.31" y="-409.46" font-family="Hiragino Sans" font-size="14.00" fill="#19324d">短い間隔</text>
<text xml:space="preserve" text-anchor="middle" x="199.31" y="-394.46" font-family="Hiragino Sans" font-size="14.00" fill="#19324d">状態変化を早く発見</text>
<text xml:space="preserve" text-anchor="middle" x="199.31" y="-379.46" font-family="Hiragino Sans" font-size="14.00" fill="#19324d">通知GET・SQL・COMMITは増える</text>
</g>
<!-- loop -->
<g id="node3" class="node">
<title>loop</title>
<path fill="#ffffff" stroke="#19324d" stroke-width="1.5" d="M446.27,-324.12C446.27,-324.12 204.35,-324.12 204.35,-324.12 198.35,-324.12 192.35,-318.12 192.35,-312.12 192.35,-312.12 192.35,-288.84 192.35,-288.84 192.35,-282.84 198.35,-276.84 204.35,-276.84 204.35,-276.84 446.27,-276.84 446.27,-276.84 452.27,-276.84 458.27,-282.84 458.27,-288.84 458.27,-288.84 458.27,-312.12 458.27,-312.12 458.27,-318.12 452.27,-324.12 446.27,-324.12"/>
<text xml:space="preserve" text-anchor="middle" x="325.31" y="-302.18" font-family="Hiragino Sans" font-size="14.00" fill="#19324d">通知を受けて次のride操作へ進むため</text>
<text xml:space="preserve" text-anchor="middle" x="325.31" y="-287.18" font-family="Hiragino Sans" font-size="14.00" fill="#19324d">発見遅延はride中に何度も累積</text>
</g>
<!-- short&#45;&gt;loop -->
<g id="edge1" class="edge">
<title>short&#45;&gt;loop</title>
<path fill="none" stroke="#546578" stroke-width="1.5" d="M238.83,-368.59C254.44,-356.48 272.3,-342.62 287.72,-330.66"/>
<polygon fill="#546578" stroke="#546578" stroke-width="1.5" points="289.13,-333.1 293.74,-325.98 285.7,-328.68 289.13,-333.1"/>
</g>
<!-- long -->
<g id="node2" class="node">
<title>long</title>
<path fill="#ffffff" stroke="#19324d" stroke-width="1.5" d="M535.77,-431.4C535.77,-431.4 368.85,-431.4 368.85,-431.4 362.85,-431.4 356.85,-425.4 356.85,-419.4 356.85,-419.4 356.85,-381.12 356.85,-381.12 356.85,-375.12 362.85,-369.12 368.85,-369.12 368.85,-369.12 535.77,-369.12 535.77,-369.12 541.77,-369.12 547.77,-375.12 547.77,-381.12 547.77,-381.12 547.77,-419.4 547.77,-419.4 547.77,-425.4 541.77,-431.4 535.77,-431.4"/>
<text xml:space="preserve" text-anchor="middle" x="452.31" y="-409.46" font-family="Hiragino Sans" font-size="14.00" fill="#19324d">長い間隔</text>
<text xml:space="preserve" text-anchor="middle" x="452.31" y="-394.46" font-family="Hiragino Sans" font-size="14.00" fill="#19324d">空pollingとDB負荷は減る</text>
<text xml:space="preserve" text-anchor="middle" x="452.31" y="-379.46" font-family="Hiragino Sans" font-size="14.00" fill="#19324d">次の操作開始が遅れる</text>
</g>
<!-- long&#45;&gt;loop -->
<g id="edge2" class="edge">
<title>long&#45;&gt;loop</title>
<path fill="none" stroke="#546578" stroke-width="1.5" d="M412.48,-368.59C396.74,-356.48 378.75,-342.62 363.21,-330.66"/>
<polygon fill="#546578" stroke="#546578" stroke-width="1.5" points="365.18,-328.64 357.13,-325.98 361.76,-333.08 365.18,-328.64"/>
</g>
<!-- test -->
<g id="node4" class="node">
<title>test</title>
<path fill="#ffffff" stroke="#19324d" stroke-width="1.5" d="M474.4,-231.84C474.4,-231.84 176.23,-231.84 176.23,-231.84 170.23,-231.84 164.23,-225.84 164.23,-219.84 164.23,-219.84 164.23,-196.56 164.23,-196.56 164.23,-190.56 170.23,-184.56 176.23,-184.56 176.23,-184.56 474.4,-184.56 474.4,-184.56 480.4,-184.56 486.4,-190.56 486.4,-196.56 486.4,-196.56 486.4,-219.84 486.4,-219.84 486.4,-225.84 480.4,-231.84 474.4,-231.84"/>
<text xml:space="preserve" text-anchor="middle" x="325.31" y="-209.9" font-family="Hiragino Sans" font-size="14.00" fill="#19324d">30 / 50 / 100msを比較</text>
<text xml:space="preserve" text-anchor="middle" x="325.31" y="-194.9" font-family="Hiragino Sans" font-size="14.00" fill="#19324d">request数・COMMIT・完了数・scoreを確認</text>
</g>
<!-- loop&#45;&gt;test -->
<g id="edge3" class="edge">
<title>loop&#45;&gt;test</title>
<path fill="none" stroke="#546578" stroke-width="1.5" d="M325.31,-276.23C325.31,-265.91 325.31,-253.58 325.31,-242.32"/>
<polygon fill="#546578" stroke="#546578" stroke-width="1.5" points="328.11,-242.64 325.31,-234.64 322.51,-242.64 328.11,-242.64"/>
</g>
<!-- result -->
<g id="node5" class="node">
<title>result</title>
<path fill="#d8efea" stroke="#19324d" stroke-width="1.5" d="M431.27,-139.56C431.27,-139.56 219.35,-139.56 219.35,-139.56 213.35,-139.56 207.35,-133.56 207.35,-127.56 207.35,-127.56 207.35,-104.28 207.35,-104.28 207.35,-98.28 213.35,-92.28 219.35,-92.28 219.35,-92.28 431.27,-92.28 431.27,-92.28 437.27,-92.28 443.27,-98.28 443.27,-104.28 443.27,-104.28 443.27,-127.56 443.27,-127.56 443.27,-133.56 437.27,-139.56 431.27,-139.56"/>
<text xml:space="preserve" text-anchor="middle" x="325.31" y="-117.62" font-family="Hiragino Sans" font-size="14.00" fill="#19324d">50ms・100msでscore改善なし</text>
<text xml:space="preserve" text-anchor="middle" x="325.31" y="-102.62" font-family="Hiragino Sans" font-size="14.00" fill="#19324d">30msを維持</text>
</g>
<!-- test&#45;&gt;result -->
<g id="edge4" class="edge">
<title>test&#45;&gt;result</title>
<path fill="none" stroke="#546578" stroke-width="1.5" d="M325.31,-183.95C325.31,-173.63 325.31,-161.3 325.31,-150.04"/>
<polygon fill="#546578" stroke="#546578" stroke-width="1.5" points="328.11,-150.36 325.31,-142.36 322.51,-150.36 328.11,-150.36"/>
</g>
<!-- next -->
<g id="node6" class="node">
<title>next</title>
<path fill="#ffffff" stroke="#19324d" stroke-width="1.5" d="M451.52,-47.28C451.52,-47.28 199.1,-47.28 199.1,-47.28 193.1,-47.28 187.1,-41.28 187.1,-35.28 187.1,-35.28 187.1,-12 187.1,-12 187.1,-6 193.1,0 199.1,0 199.1,0 451.52,0 451.52,0 457.52,0 463.52,-6 463.52,-12 463.52,-12 463.52,-35.28 463.52,-35.28 463.52,-41.28 457.52,-47.28 451.52,-47.28"/>
<text xml:space="preserve" text-anchor="middle" x="325.31" y="-25.34" font-family="Hiragino Sans" font-size="14.00" fill="#19324d">次は間隔ではなく</text>
<text xml:space="preserve" text-anchor="middle" x="325.31" y="-10.34" font-family="Hiragino Sans" font-size="14.00" fill="#19324d">cache / long pollingで空仕事を減らす</text>
</g>
<!-- result&#45;&gt;next -->
<g id="edge5" class="edge">
<title>result&#45;&gt;next</title>
<path fill="none" stroke="#546578" stroke-width="1.5" d="M325.31,-91.67C325.31,-81.35 325.31,-69.02 325.31,-57.76"/>
<polygon fill="#546578" stroke="#546578" stroke-width="1.5" points="328.11,-58.08 325.31,-50.08 322.51,-58.08 328.11,-58.08"/>
</g>
</g>
</svg>
